<?xml version="1.0" encoding="UTF-8" standalone="no"?>
<!-- Created with Inkscape (http://www.inkscape.org/) -->

<svg
   width="297mm"
   height="210mm"
   viewBox="0 0 297 210"
   version="1.1"
   id="svg1"
   xmlns:xlink="http://www.w3.org/1999/xlink"
   xmlns="http://www.w3.org/2000/svg"
   xmlns:svg="http://www.w3.org/2000/svg">
  <defs
     id="defs1">
    <linearGradient
       xlink:href="#linearGradient240"
       id="linearGradient225"
       x1="60.238926"
       y1="148.00023"
       x2="60.238926"
       y2="208.28249"
       gradientUnits="userSpaceOnUse" />
    <linearGradient
       id="linearGradient240">
      <stop
         style="stop-color:#001e56;stop-opacity:1;"
         offset="0.2253518"
         id="stop239" />
      <stop
         style="stop-color:#7f8a9a;stop-opacity:1;"
         offset="1"
         id="stop240" />
    </linearGradient>
    <linearGradient
       xlink:href="#linearGradient242"
       id="linearGradient241"
       gradientUnits="userSpaceOnUse"
       x1="60.238926"
       y1="148.00023"
       x2="60.238926"
       y2="208.28249" />
    <linearGradient
       id="linearGradient242">
      <stop
         style="stop-color:#00308f;stop-opacity:1;"
         offset="0"
         id="stop243" />
      <stop
         style="stop-color:#0042bb;stop-opacity:1;"
         offset="0.47259915"
         id="stop241" />
      <stop
         style="stop-color:#6ea8ff;stop-opacity:1;"
         offset="1"
         id="stop242" />
    </linearGradient>
    <linearGradient
       xlink:href="#linearGradient242"
       id="linearGradient1"
       gradientUnits="userSpaceOnUse"
       x1="60.238926"
       y1="148.00023"
       x2="60.238926"
       y2="208.28249" />
    <linearGradient
       xlink:href="#linearGradient242"
       id="linearGradient2"
       gradientUnits="userSpaceOnUse"
       x1="60.238926"
       y1="148.00023"
       x2="60.238926"
       y2="208.28249" />
    <linearGradient
       xlink:href="#linearGradient242"
       id="linearGradient7"
       gradientUnits="userSpaceOnUse"
       x1="60.238926"
       y1="148.00023"
       x2="60.238926"
       y2="208.28249" />
    <linearGradient
       xlink:href="#linearGradient242"
       id="linearGradient12"
       gradientUnits="userSpaceOnUse"
       x1="60.238926"
       y1="148.00023"
       x2="60.238926"
       y2="208.28249" />
    <linearGradient
       xlink:href="#linearGradient242"
       id="linearGradient13"
       gradientUnits="userSpaceOnUse"
       x1="60.238926"
       y1="148.00023"
       x2="60.238926"
       y2="208.28249" />
    <linearGradient
       xlink:href="#linearGradient242"
       id="linearGradient14"
       gradientUnits="userSpaceOnUse"
       x1="60.238926"
       y1="148.00023"
       x2="60.238926"
       y2="208.28249" />
    <linearGradient
       xlink:href="#linearGradient242"
       id="linearGradient15"
       gradientUnits="userSpaceOnUse"
       x1="60.238926"
       y1="148.00023"
       x2="60.238926"
       y2="208.28249" />
    <linearGradient
       xlink:href="#linearGradient16"
       id="linearGradient17"
       x1="-29.009605"
       y1="104.99436"
       x2="-29.009605"
       y2="145.92026"
       gradientUnits="userSpaceOnUse"
       gradientTransform="translate(179.7196,-23.807249)" />
    <linearGradient
       id="linearGradient16">
      <stop
         style="stop-color:#00308f;stop-opacity:1;"
         offset="0"
         id="stop16" />
      <stop
         style="stop-color:#0042bb;stop-opacity:1;"
         offset="0.47"
         id="stop18" />
      <stop
         style="stop-color:#6ea8ff;stop-opacity:1;"
         offset="1"
         id="stop17" />
    </linearGradient>
  </defs>
  <rect
     style="display:none;fill:#ffffff;fill-opacity:1;stroke:#000000;stroke-width:0.02"
     id="rect15"
     width="297"
     height="210"
     x="0"
     y="0" />
  <g
     id="layer1">
    <g
       id="g145"
       transform="translate(82.520229,-88.356617)"
       style="display:inline">
      <path
         id="path142-6-9-7"
         style="display:inline;fill:#6b7280;fill-opacity:1;stroke:none;stroke-width:0"
         d="m 81.035436,235.50276 a 11.47542,11.47542 0 0 0 -1.79734,1.03795 h 13.22864 a 11.47542,11.47542 0 0 0 -1.79734,-1.03795 z m 18.32502,0 v 1.03795 h 6.431384 l -0.74492,-1.03795 z m 15.330354,0 v 1.03795 h 4.63219 l -0.002,-1.03795 z m 7.08707,0 v 1.03795 h 14.41085 v -1.03795 z m -43.929024,2.19142 a 11.47542,11.47542 0 0 0 -0.94325,1.03747 h 17.89313 a 11.47542,11.47542 0 0 0 -0.94326,-1.03747 z m 21.5116,0 v 1.03747 h 8.003484 l -0.74442,-1.03747 z m 15.330354,0 v 1.03747 h 4.63764 l -0.002,-1.03747 z m 7.08707,0 v 1.03747 h 14.41085 v -1.03747 z m -45.687224,2.19101 a 11.47542,11.47542 0 0 0 -0.5699,1.03787 h 5.34166 a 7.1004454,7.1004454 0 0 1 1.33729,-1.03787 z m 13.41384,0 a 7.1004454,7.1004454 0 0 1 1.33783,1.03787 h 5.34157 a 11.47542,11.47542 0 0 0 -0.56989,-1.03787 z m 9.85596,0 v 1.03787 h 9.576524 l -0.74491,-1.03787 z m 15.330354,0 v 1.03787 h 4.64354 l -9.9e-4,-1.03787 z m 7.08707,0 v 1.03787 h 4.52302 v -1.03787 z m -46.738784,2.19097 a 11.47542,11.47542 0 0 0 -0.31422,1.0379 h 4.62945 a 7.1004454,7.1004454 0 0 1 0.56399,-1.0379 z m 16.74737,0 a 7.1004454,7.1004454 0 0 1 0.56399,1.0379 h 4.62948 a 11.47542,11.47542 0 0 0 -0.31426,-1.0379 z m 7.57399,0 v 1.0379 h 4.670364 v -0.85862 l 0.59123,0.85862 h 5.88715 l -0.74485,-1.0379 z m 15.330354,0 v 1.0379 h 4.64948 l -0.002,-1.0379 z m 7.08707,0 v 1.0379 h 4.52302 v -1.0379 z m -47.281604,2.19093 a 11.47542,11.47542 0 0 0 -0.10342,1.0379 h 4.39148 a 7.1004454,7.1004454 0 0 1 0.17634,-1.0379 z m 18.24758,0 a 7.1004454,7.1004454 0 0 1 0.17634,1.0379 h 4.39104 a 11.47542,11.47542 0 0 0 -0.10303,-1.0379 z m 6.6166,0 v 1.0379 h 4.670364 v -1.0379 z m 6.055044,0 0.71446,1.0379 h 5.95128 l -0.74491,-1.0379 z m 9.27531,0 v 1.0379 h 4.655 l -0.001,-1.0379 z m 7.08707,0 v 1.0379 h 13.61083 v -1.0379 z m -47.388534,2.19097 a 11.47542,11.47542 0 0 0 0.0962,1.03793 h 4.43198 a 7.1004454,7.1004454 0 0 1 -0.1486,-1.03793 z m 18.54609,0 a 7.1004454,7.1004454 0 0 1 -0.1486,1.03793 h 4.43199 a 11.47542,11.47542 0 0 0 0.0965,-1.03793 z m 6.42502,0 v 1.03793 h 4.670364 v -1.03793 z m 7.563014,0 0.71439,1.03793 h 6.01596 l -0.74491,-1.03793 z m 7.76734,0 v 1.03793 h 4.66089 l -0.002,-1.03793 z m 7.08707,0 v 1.03793 h 13.61083 v -1.03793 z m -47.071404,2.19098 a 11.47542,11.47542 0 0 0 0.30651,1.03789 h 4.78779 a 7.1004454,7.1004454 0 0 1 -0.52491,-1.03789 z m 17.72249,0 a 7.1004454,7.1004454 0 0 1 -0.52493,1.03789 h 4.78779 a 11.47542,11.47542 0 0 0 0.30655,-1.03789 z m 6.93149,0 v 1.03789 h 4.670364 v -1.03789 z m 9.070964,0 0.71441,1.03789 h 10.2118 l -0.002,-1.03789 h -4.66406 v 0.29236 l -0.20948,-0.29236 z m 13.34646,0 v 1.03789 h 4.52798 l -9.9e-4,-1.03789 z M 75.485476,250.84 a 11.47542,11.47542 0 0 0 0.56043,1.03794 h 5.8631 A 7.1004454,7.1004454 0 0 1 80.682666,250.84 Z m 15.53699,0 a 7.1004454,7.1004454 0 0 1 -1.22626,1.03794 h 5.863 a 11.47542,11.47542 0 0 0 0.56043,-1.03794 z m 8.33799,0 v 1.03794 h 4.670364 V 250.84 Z m 10.578944,0 0.71446,1.03794 h 8.70969 l -0.002,-1.03794 z m 11.83848,0 v 1.03794 h 4.53391 L 126.3108,250.84 Z m -44.931454,2.19099 a 11.47542,11.47542 0 0 0 0.92742,1.03793 h 16.15714 a 11.47542,11.47542 0 0 0 0.92743,-1.03793 h -8.22286 a 7.1004454,7.1004454 0 0 1 -0.78403,0.0414 7.1004454,7.1004454 0 0 1 -0.78222,-0.0414 z m 22.51403,0 v 1.03793 h 4.670364 v -1.03793 z m 12.086894,0 0.71443,1.03793 h 7.20719 l -0.002,-1.03793 z m 10.33053,0 v 1.03793 h 14.4117 v -1.03793 z m -42.643504,2.1914 a 11.47542,11.47542 0 0 0 1.74318,1.03746 h 9.94975 a 11.47542,11.47542 0 0 0 1.74275,-1.03746 z m 20.22608,0 v 1.03746 h 4.670364 v -1.03746 z m 13.595334,0 0.71392,1.03746 h 5.70518 l -0.002,-1.03746 z m 8.82209,0 v 1.03746 h 14.4117 v -1.03746 z" />
      <path
         id="path142"
         style="display:inline;opacity:1;fill:#0f172a;fill-opacity:1;stroke:none;stroke-width:0"
         d="m 81.029808,130.20012 c -0.629465,0.29109 -1.231258,0.63862 -1.797995,1.03832 h 13.233265 c -0.566742,-0.3997 -1.168539,-0.74723 -1.79801,-1.03832 z m 18.33139,0 v 1.03832 h 6.433652 l -0.74513,-1.03832 z m 15.335802,0 v 1.03832 h 4.6338 l -0.003,-1.03832 z m 7.08961,0 v 1.03832 h 14.41586 v -1.03832 z m -43.944519,2.19215 c -0.335392,0.3264 -0.650511,0.673 -0.943592,1.03786 h 17.899419 c -0.29309,-0.36486 -0.608218,-0.71146 -0.94362,-1.03786 z m 21.519107,0 v 1.03786 h 8.006372 l -0.7447,-1.03786 z m 15.335802,0 v 1.03786 h 4.6393 l -0.003,-1.03786 z m 7.08961,0 v 1.03786 h 14.41586 v -1.03786 z m -45.703342,2.19182 c -0.207708,0.33604 -0.397931,0.68257 -0.56991,1.03822 h 5.343481 c 0.402942,-0.39818 0.852071,-0.74673 1.337815,-1.03822 z m 13.41853,0 c 0.4859,0.29146 0.93518,0.64001 1.33826,1.03822 h 5.34349 c -0.171979,-0.35565 -0.362202,-0.70218 -0.56991,-1.03822 z m 9.8594,0 v 1.03822 h 9.579912 l -0.74511,-1.03822 z m 15.335802,0 v 1.03822 h 4.64521 l -0.003,-1.03822 z m 7.08961,0 v 1.03822 h 4.52455 v -1.03822 z m -46.755307,2.19171 c -0.121144,0.34094 -0.226101,0.68741 -0.31452,1.03826 h 4.631082 c 0.158838,-0.36115 0.34749,-0.70843 0.563998,-1.03826 z m 16.753285,0 c 0.216647,0.32981 0.405433,0.6771 0.5644,1.03826 h 4.63109 c -0.08842,-0.35085 -0.193376,-0.69732 -0.31452,-1.03826 z m 7.57661,0 v 1.03826 h 4.672082 v -0.85893 l 0.59132,0.85893 h 5.88922 l -0.74515,-1.03826 z m 15.335802,0 v 1.03826 h 4.65113 l -0.003,-1.03826 z m 7.08961,0 v 1.03826 h 4.52455 v -1.03826 z m -47.298333,2.19173 c -0.05015,0.34436 -0.08463,0.69081 -0.103307,1.03829 h 4.393015 c 0.03307,-0.34998 0.09207,-0.69704 0.176529,-1.03829 z m 18.254031,0 c 0.08445,0.34125 0.143455,0.68831 0.17652,1.03829 h 4.39259 c -0.01858,-0.34748 -0.05294,-0.69393 -0.10299,-1.03829 z m 6.61889,0 v 1.03829 h 4.672082 v -1.03829 z m 6.057222,0 0.71466,1.03829 h 5.95342 l -0.74515,-1.03829 z m 9.27858,0 v 1.03829 h 4.65662 l -0.003,-1.03829 z m 7.08961,0 v 1.03829 h 13.61558 v -1.03829 z m -47.405319,2.19172 c 0.01646,0.34738 0.0487,0.69383 0.09662,1.03828 h 4.433547 c -0.07498,-0.34196 -0.124586,-0.689 -0.148397,-1.03828 z m 18.552627,0 c -0.02381,0.34928 -0.07342,0.69632 -0.14841,1.03828 h 4.43357 c 0.04791,-0.34445 0.08014,-0.6909 0.0966,-1.03828 z m 6.42728,0 v 1.03828 h 4.672082 v -1.03828 z m 7.565742,0 0.71463,1.03828 h 6.01804 l -0.74513,-1.03828 z m 7.77006,0 v 1.03828 h 4.66252 l -0.003,-1.03828 z m 7.08961,0 v 1.03828 h 13.61558 v -1.03828 z m -47.088054,2.19173 c 0.08589,0.35073 0.188273,0.69721 0.306819,1.03828 h 4.789504 c -0.203194,-0.33114 -0.378875,-0.6784 -0.525277,-1.03828 z m 17.728722,0 c -0.1464,0.35988 -0.322079,0.70714 -0.52527,1.03828 h 4.78948 c 0.118553,-0.34107 0.220947,-0.68755 0.30684,-1.03828 z m 6.93392,0 v 1.03828 h 4.672082 v -1.03828 z m 9.074192,0 0.71466,1.03828 h 10.2154 l -0.003,-1.03828 h -4.66635 v 0.29226 l -0.2099,-0.29226 z m 13.35122,0 v 1.03828 h 4.52959 l -0.003,-1.03828 z m -46.308749,2.19174 c 0.168861,0.35548 0.355891,0.70204 0.560348,1.03831 h 5.865083 c -0.446873,-0.29858 -0.858415,-0.64691 -1.226725,-1.03831 z m 15.542467,0 c -0.368314,0.3914 -0.779862,0.73974 -1.22674,1.03831 h 5.86511 c 0.204451,-0.33627 0.391475,-0.68283 0.56033,-1.03831 z m 8.34087,0 v 1.03831 h 4.672082 v -1.03831 z m 10.582722,0 0.71466,1.03831 h 8.71279 l -0.003,-1.03831 z m 11.84269,0 v 1.03831 h 4.5355 l -0.003,-1.03831 z m -44.947269,2.19175 c 0.287925,0.36456 0.597714,0.71131 0.927657,1.03832 h 16.16287 c 0.329941,-0.32701 0.639727,-0.67376 0.92765,-1.03832 h -8.2257 c -0.260433,0.0289 -0.522263,0.0433 -0.78429,0.0432 -0.261413,1e-5 -0.522627,-0.0144 -0.78245,-0.0432 z m 22.521857,0 v 1.03832 h 4.672082 v -1.03832 z m 12.091202,0 0.71467,1.03832 h 7.20973 l -0.003,-1.03832 z m 10.33421,0 v 1.03832 h 14.41676 v -1.03832 z m -42.658563,2.19219 c 0.549496,0.39675 1.133048,0.74405 1.743818,1.03784 h 9.953173 c 0.610612,-0.29381 1.19401,-0.64111 1.74336,-1.03784 z m 20.233151,0 v 1.03784 h 4.672082 v -1.03784 z m 13.600172,0 0.71419,1.03784 h 5.70719 l -0.003,-1.03784 z m 8.82524,0 v 1.03784 h 14.41676 v -1.03784 z" />
      <g
         id="g224"
         style="fill:url(#linearGradient225)"
         transform="matrix(1.2253897,0,0,1.2253897,-39.559842,-55.497214)">
        <g
           id="g240"
           style="fill:url(#linearGradient15)"
           transform="translate(0,64.775277)">
          <path
             d="m 90.344372,165.10881 c -7.185344,0.0173 -12.998496,5.84692 -12.998654,13.03228 -1.28e-4,7.18557 5.815727,13.01553 13.001274,13.0328 l 0.03307,-5.15685 c -4.4412,-0.0173 -7.805783,-3.36472 -7.805952,-7.80595 -1.17e-4,-4.44144 3.364549,-7.78867 7.805952,-7.80595 z"
             style="display:inline;fill:url(#linearGradient12);fill-opacity:1;stroke:none;stroke-width:0"
             id="path1-6" />
          <path
             d="m 56.780638,166.02503 v 24.21595 l 4.831219,0.003 0.0048,-8.63532 4.978027,-0.0366 4.935777,8.6673 h 4.807804 c 0,0 -5.420626,-9.66953 -5.42282,-9.67339 2.282062,-1.39536 4.690613,-3.24379 4.733881,-6.98099 -0.05993,-3.7592 -3.844613,-7.5616 -9.054642,-7.56159 l -4.978027,1e-5 z m 4.835851,3.82318 h 2.992245 c 4.736485,0 6.355164,1.98665 6.231232,3.78634 -0.05685,1.95664 -0.848179,4.13134 -6.231232,4.08761 l -2.992245,-0.0381 z"
             style="display:inline;fill:url(#linearGradient13);fill-opacity:1;stroke:none;stroke-width:0"
             id="path1-3" />
          <path
             d="m 40.063561,166.02325 -9.965766,24.2205 h 4.836755 l 1.990388,-4.86873 h 10.943731 l 1.978441,4.86873 h 4.832123 l -9.783547,-24.2205 z m 2.397116,5.94377 4.255496,10.52567 -8.59442,9.3e-4 z"
             style="display:inline;fill:url(#linearGradient14);fill-opacity:1;stroke:none;stroke-width:0"
             id="path1-8" />
        </g>
        <g
           id="g12"
           style="fill:url(#linearGradient241)"
           transform="translate(0,-21.159935)">
          <path
             d="m 90.344372,165.10881 c -7.185344,0.0173 -12.998496,5.84692 -12.998654,13.03228 -1.28e-4,7.18557 5.815727,13.01553 13.001274,13.0328 l 0.03307,-5.15685 c -4.4412,-0.0173 -7.805783,-3.36472 -7.805952,-7.80595 -1.17e-4,-4.44144 3.364549,-7.78867 7.805952,-7.80595 z"
             style="display:inline;fill:url(#linearGradient1);fill-opacity:1;stroke:none;stroke-width:0"
             id="path10" />
          <path
             d="m 56.780638,166.02503 v 24.21595 l 4.831219,0.003 0.0048,-8.63532 4.978027,-0.0366 4.935777,8.6673 h 4.807804 c 0,0 -5.420626,-9.66953 -5.42282,-9.67339 2.282062,-1.39536 4.690613,-3.24379 4.733881,-6.98099 -0.05993,-3.7592 -3.844613,-7.5616 -9.054642,-7.56159 l -4.978027,1e-5 z m 4.835851,3.82318 h 2.992245 c 4.736485,0 6.355164,1.98665 6.231232,3.78634 -0.05685,1.95664 -0.848179,4.13134 -6.231232,4.08761 l -2.992245,-0.0381 z"
             style="display:inline;fill:url(#linearGradient2);fill-opacity:1;stroke:none;stroke-width:0"
             id="path11" />
          <path
             d="m 40.063561,166.02325 -9.965766,24.2205 h 4.836755 l 1.990388,-4.86873 h 10.943731 l 1.978441,4.86873 h 4.832123 l -9.783547,-24.2205 z m 2.397116,5.94377 4.255496,10.52567 -8.59442,9.3e-4 z"
             style="display:inline;fill:url(#linearGradient7);fill-opacity:1;stroke:none;stroke-width:0"
             id="path12" />
        </g>
      </g>
    </g>
    <rect
       style="display:inline;fill:url(#linearGradient17);fill-opacity:1;stroke:#000000;stroke-width:0.02"
       id="rect16"
       width="40.905899"
       height="40.905899"
       x="130.25705"
       y="81.197113"
       ry="7.8482251" />
    <path
       id="path1"
       style="display:inline;opacity:0.95;fill:#ffffff;fill-opacity:1;stroke:none;stroke-width:0"
       d="m 149.72778,89.43607 c -6.30783,0.51473 -11.28703,5.794499 -11.28717,12.22923 -1.1e-4,6.43492 4.97916,11.71502 11.28717,12.22974 v -4.87774 c -3.68395,-0.46518 -6.36432,-3.44014 -6.36447,-7.28637 -1e-4,-3.846451 2.68033,-6.820818 6.36447,-7.285863 z m 1.96422,1.628841 v 1.066085 h 5.81463 c -0.58193,-0.41042 -1.19903,-0.767206 -1.84536,-1.066085 z m 0,2.251026 v 1.065568 h 8.21035 c -0.30094,-0.374649 -0.62454,-0.730432 -0.96893,-1.065568 z m 2.77244,2.250508 c 0.49892,0.29927 0.95968,0.656688 1.37356,1.065569 h 5.48752 c -0.17659,-0.365179 -0.37223,-0.720524 -0.58549,-1.065569 z m 2.34404,2.249992 c 0.22245,0.338647 0.41658,0.695764 0.57981,1.066602 h 4.75423 c -0.0908,-0.360252 -0.19807,-0.716527 -0.32246,-1.066602 z m 0.98341,2.250513 c 0.0866,0.35039 0.1469,0.70723 0.18086,1.0666 h 4.51032 c -0.0191,-0.35679 -0.0545,-0.71301 -0.10593,-1.0666 z m 0.19688,2.25102 c -0.0244,0.35864 -0.0759,0.71445 -0.15296,1.06557 h 4.55269 c 0.0492,-0.35368 0.0823,-0.70888 0.0992,-1.06557 z m -0.52038,2.24999 c -0.15032,0.36953 -0.33086,0.72606 -0.5395,1.06609 h 4.91753 c 0.12172,-0.35021 0.22754,-0.70596 0.31574,-1.06609 z m -1.44435,2.25051 c -0.3782,0.40189 -0.80154,0.76002 -1.26039,1.0666 h 6.02289 c 0.20993,-0.34528 0.40229,-0.70159 0.57567,-1.0666 z m -4.33204,2.25051 v 1.06608 h 7.31945 c 0.33878,-0.33578 0.65727,-0.69175 0.95291,-1.06608 z m 0,2.25103 v 1.06556 h 4.13101 c 0.62698,-0.30168 1.226,-0.65821 1.79008,-1.06556 z" />
  </g>
</svg>
